<svg width="60" height="60" viewBox="0 0 60 60" fill="none" xmlns="http://www.w3.org/2000/svg">
    <g clip-path="url(#clip0)">
        <rect width="60" height="60" fill="white"/>
        <path d="M41.6472 40.9522H38.8932V37.8634H47.0396C47.3055 37.8694 47.5619 37.7659 47.7489 37.5773C47.9364 37.3888 48.038 37.1319 48.0309 36.866V27.0104C50.2189 26.5071 51.6828 24.6209 51.6828 22.3772C51.6828 20.1329 50.2189 18.2462 48.0309 17.7429V11.1848C48.038 10.9198 47.9359 10.6634 47.7484 10.4759C47.5609 10.2884 47.3045 10.1863 47.0396 10.1934H30.9138V8.03061C32.9077 7.57764 34.2545 5.714 34.0599 3.67843C33.8649 1.64285 32.1888 0.0687914 30.1446 0.00192772C28.101 -0.0644333 26.3259 1.39702 25.9986 3.4155C25.6713 5.43398 26.8945 7.38157 28.8546 7.96374V10.1929H12.9858C12.7209 10.1858 12.4645 10.2879 12.2769 10.4754C12.0894 10.6629 11.9874 10.9188 11.9949 11.1838V17.7419C9.80701 18.2452 8.34254 20.1314 8.34254 22.3751C8.34254 24.6194 9.80701 26.5071 11.9949 27.0104V36.866C11.9874 37.1319 12.0889 37.3888 12.2764 37.5773C12.4635 37.7659 12.7199 37.8694 12.9858 37.8634H21.1326V40.9522H18.3781C12.5419 40.9522 7.7478 45.7302 7.7478 51.567V58.9959C7.7478 59.565 8.25406 59.9998 8.82265 59.9998H51.2027C51.7713 59.9998 52.2781 59.5645 52.2781 58.9959V51.567C52.2781 45.7302 47.484 40.9522 41.6472 40.9522ZM28.005 4.06704C28.005 2.95801 28.9039 2.05912 30.0129 2.05912C31.1215 2.05912 32.0203 2.95801 32.0203 4.06704C32.0203 5.17557 31.1215 6.07446 30.0129 6.07446C28.9044 6.07346 28.006 5.17507 28.005 4.06704ZM49.6236 22.3766C49.6236 23.4721 49.0606 24.4152 48.0309 24.8411V19.9117C49.0606 20.3376 49.6236 21.2812 49.6236 22.3766ZM10.4017 22.3766C10.4017 21.2812 10.9653 20.3376 11.9949 19.9117V24.8411C10.9653 24.4152 10.4017 23.4721 10.4017 22.3766ZM14.0541 12.2521H45.9717V35.8042H14.0541V12.2521ZM23.1918 37.8634H36.834V40.9522H23.1918V37.8634ZM39.7941 57.9406H20.2317V50.7334H39.7941V57.9406ZM50.2189 57.9406H41.8533V49.6872C41.8533 49.1186 41.3285 48.6742 40.7594 48.6742H19.2665C18.6979 48.6742 18.1725 49.1186 18.1725 49.6872V57.9406H9.80701V51.567C9.80701 46.8659 13.6771 43.0114 18.3781 43.0114H41.6472C46.3488 43.0114 50.2189 46.8659 50.2189 51.567V57.9406Z" fill="#3A559F"/>
        <path d="M39.4082 26.1517C39.4082 25.5831 38.9472 25.1221 38.3786 25.1221H21.5189C20.9503 25.1221 20.4893 25.5831 20.4893 26.1517V32.458C20.4893 33.0266 20.9503 33.4876 21.5189 33.4876H38.3786C38.9472 33.4876 39.4082 33.0266 39.4082 32.458V26.1517ZM37.4777 27.1813V28.3396H22.5485V27.1813H37.4777ZM22.5485 31.5571V30.3988H37.4777V31.5571H22.5485Z" fill="#3A559F"/>
        <path d="M26.5382 16.628C26.5382 16.0594 26.0771 15.5984 25.5085 15.5984H20.7466C20.178 15.5984 19.717 16.0594 19.717 16.628V21.3899C19.717 21.9585 20.178 22.4195 20.7466 22.4195H25.5085C26.0771 22.4195 26.5382 21.9585 26.5382 21.3899V16.628ZM21.7762 17.6576H24.6076V20.3603H21.7762V17.6576Z" fill="#3A559F"/>
        <path d="M40.1805 16.628C40.1805 16.0594 39.7195 15.5984 39.1509 15.5984H34.389C33.8204 15.5984 33.3594 16.0594 33.3594 16.628V21.3899C33.3594 21.9585 33.8204 22.4195 34.389 22.4195H39.1509C39.7195 22.4195 40.1805 21.9585 40.1805 21.3899V16.628ZM35.4186 17.6576H38.25V20.3603H35.4186V17.6576Z" fill="#3A559F"/>
    </g>
    <defs>
        <clipPath id="clip0">
            <rect width="60" height="60" fill="white"/>
        </clipPath>
    </defs>
</svg>
