<svg width="30" height="30" viewBox="0 0 30 30" fill="none" xmlns="http://www.w3.org/2000/svg">
    <path d="M29.4827 24.8276H0.517265C0.231621 24.8276 0 24.596 0 24.3103V5.68969C0 5.40404 0.231621 5.17242 0.517265 5.17242H29.4827C29.7684 5.17242 30 5.40404 30 5.68969V24.3103C29.9999 24.596 29.7683 24.8276 29.4827 24.8276Z" fill="#F5F5F5"/>
    <path d="M29.9999 6.68443H0V5.68969C0 5.40404 0.231621 5.17242 0.517265 5.17242H29.4827C29.7684 5.17242 30 5.40404 30 5.68969L29.9999 6.68443Z" fill="#FF4B55"/>
    <path d="M29.9999 11.2202H0V12.7322H29.9999V11.2202Z" fill="#FF4B55"/>
    <path d="M29.9999 8.19617H0V9.70812H29.9999V8.19617Z" fill="#FF4B55"/>
    <path d="M29.9999 15.756H0.517265C0.231621 15.756 0 15.5244 0 15.2388V14.244H29.9999V15.756Z" fill="#FF4B55"/>
    <path d="M29.9999 20.2922H0V21.8041H29.9999V20.2922Z" fill="#FF4B55"/>
    <path d="M29.4827 24.8276H0.517265C0.231621 24.8276 0 24.5959 0 24.3103V23.3156H29.9999V24.3104C29.9999 24.596 29.7683 24.8276 29.4827 24.8276Z" fill="#FF4B55"/>
    <path d="M29.9999 17.2682H0V18.7802H29.9999V17.2682Z" fill="#FF4B55"/>
    <path d="M13.4482 5.17249H0.517265C0.231621 5.17249 0 5.40405 0 5.68969V15.2387C0 15.5243 0.231621 15.756 0.517265 15.756H13.4483C13.7339 15.756 13.9656 15.5243 13.9656 15.2387V5.68969C13.9655 5.40405 13.7339 5.17249 13.4482 5.17249Z" fill="#41479B"/>
    <path d="M1.45257 6.35976L1.56706 6.70312L1.92899 6.70588C1.97587 6.70629 1.99526 6.76605 1.95759 6.79388L1.66643 7.00892L1.77565 7.35398C1.78983 7.39863 1.73891 7.43566 1.70077 7.40835L1.40634 7.19795L1.1119 7.40841C1.07376 7.43566 1.02296 7.39869 1.03702 7.35404L1.14624 7.00898L0.855089 6.79394C0.817414 6.76605 0.836808 6.70634 0.883683 6.70593L1.24562 6.70318L1.36011 6.35982C1.37487 6.31529 1.43768 6.31529 1.45257 6.35976Z" fill="#F5F5F5"/>
    <path d="M1.45257 8.15574L1.56706 8.4991L1.92899 8.50185C1.97587 8.50226 1.99526 8.56203 1.95759 8.58986L1.66643 8.8049L1.77565 9.14996C1.78983 9.1946 1.73891 9.23163 1.70077 9.20433L1.40634 8.99392L1.1119 9.20439C1.07376 9.23164 1.02296 9.19466 1.03702 9.15001L1.14624 8.80496L0.855089 8.58992C0.817414 8.56203 0.836808 8.50232 0.883683 8.50191L1.24562 8.49916L1.36011 8.1558C1.37487 8.11133 1.43768 8.11133 1.45257 8.15574Z" fill="#F5F5F5"/>
    <path d="M1.45257 9.95194L1.56706 10.2953L1.92899 10.2981C1.97587 10.2985 1.99526 10.3582 1.95759 10.3861L1.66643 10.6011L1.77565 10.9462C1.78983 10.9908 1.73891 11.0278 1.70077 11.0005L1.40634 10.7901L1.1119 11.0006C1.07376 11.0278 1.02296 10.9909 1.03702 10.9462L1.14624 10.6012L0.855089 10.3861C0.817414 10.3582 0.836808 10.2985 0.883683 10.2981L1.24562 10.2954L1.36011 9.952C1.37487 9.90753 1.43768 9.90753 1.45257 9.95194Z" fill="#F5F5F5"/>
    <path d="M1.45257 11.7481L1.56706 12.0914L1.92899 12.0942C1.97587 12.0946 1.99526 12.1544 1.95759 12.1822L1.66643 12.3972L1.77565 12.7423C1.78983 12.7869 1.73891 12.824 1.70077 12.7967L1.40634 12.5863L1.1119 12.7967C1.07376 12.824 1.02296 12.787 1.03702 12.7423L1.14624 12.3973L0.855089 12.1822C0.817414 12.1544 0.836808 12.0946 0.883683 12.0942L1.24562 12.0915L1.36011 11.7481C1.37487 11.7036 1.43768 11.7036 1.45257 11.7481Z" fill="#F5F5F5"/>
    <path d="M1.45257 13.5443L1.56706 13.8876L1.92899 13.8904C1.97587 13.8908 1.99526 13.9505 1.95759 13.9784L1.66643 14.1934L1.77565 14.5385C1.78983 14.5831 1.73891 14.6202 1.70077 14.5928L1.40634 14.3824L1.1119 14.5929C1.07376 14.6202 1.02296 14.5832 1.03702 14.5385L1.14624 14.1935L0.855089 13.9784C0.817414 13.9505 0.836808 13.8908 0.883683 13.8904L1.24562 13.8877L1.36011 13.5443C1.37487 13.4997 1.43768 13.4997 1.45257 13.5443Z" fill="#F5F5F5"/>
    <path d="M2.84661 7.24022L2.9611 7.58358L3.32303 7.58633C3.36991 7.58674 3.3893 7.64651 3.35163 7.67434L3.06048 7.88938L3.1697 8.23444C3.18388 8.27908 3.13296 8.31612 3.09481 8.28881L2.80038 8.07834L2.50595 8.28881C2.4678 8.31606 2.417 8.27908 2.43107 8.23444L2.54028 7.88938L2.24913 7.67434C2.21146 7.64645 2.23085 7.58674 2.27773 7.58633L2.63966 7.58358L2.75415 7.24022C2.76886 7.19581 2.83179 7.19581 2.84661 7.24022Z" fill="#F5F5F5"/>
    <path d="M2.84661 9.03647L2.9611 9.37983L3.32303 9.38258C3.36991 9.38299 3.3893 9.44275 3.35163 9.47059L3.06048 9.68563L3.1697 10.0307C3.18388 10.0753 3.13296 10.1124 3.09481 10.0851L2.80038 9.87459L2.50595 10.0851C2.4678 10.1123 2.417 10.0754 2.43107 10.0307L2.54028 9.68563L2.24913 9.47059C2.21146 9.4427 2.23085 9.38299 2.27773 9.38258L2.63966 9.37983L2.75415 9.03647C2.76886 8.99199 2.83179 8.99199 2.84661 9.03647Z" fill="#F5F5F5"/>
    <path d="M2.84661 10.8325L2.9611 11.1759L3.32303 11.1787C3.36991 11.1791 3.3893 11.2388 3.35163 11.2667L3.06048 11.4817L3.1697 11.8268C3.18388 11.8714 3.13296 11.9084 3.09481 11.8811L2.80038 11.6707L2.50595 11.8811C2.4678 11.9084 2.417 11.8714 2.43107 11.8268L2.54028 11.4817L2.24913 11.2667C2.21146 11.2388 2.23085 11.1791 2.27773 11.1787L2.63966 11.1759L2.75415 10.8325C2.76886 10.7881 2.83179 10.7881 2.84661 10.8325Z" fill="#F5F5F5"/>
    <path d="M2.84661 12.6286L2.9611 12.972L3.32303 12.9748C3.36991 12.9752 3.3893 13.0349 3.35163 13.0628L3.06048 13.2778L3.1697 13.6229C3.18388 13.6675 3.13296 13.7045 3.09481 13.6772L2.80038 13.4668L2.50595 13.6772C2.4678 13.7045 2.417 13.6675 2.43107 13.6229L2.54028 13.2778L2.24913 13.0628C2.21146 13.0349 2.23085 12.9752 2.27773 12.9748L2.63966 12.972L2.75415 12.6286C2.76886 12.5842 2.83179 12.5842 2.84661 12.6286Z" fill="#F5F5F5"/>
    <path d="M4.2409 6.35965L4.35539 6.70301L4.71733 6.70576C4.7642 6.70617 4.7836 6.76594 4.74592 6.79377L4.45477 7.00881L4.56399 7.35386C4.57817 7.39851 4.52725 7.43554 4.48911 7.40824L4.19467 7.19777L3.90024 7.40824C3.86209 7.43549 3.81129 7.39851 3.82535 7.35386L3.93457 7.00881L3.64342 6.79377C3.60574 6.76588 3.62514 6.70617 3.67201 6.70576L4.03395 6.70301L4.14844 6.35965C4.16321 6.31518 4.22608 6.31518 4.2409 6.35965Z" fill="#F5F5F5"/>
    <path d="M4.2409 8.15575L4.35539 8.49911L4.71733 8.50186C4.7642 8.50227 4.7836 8.56204 4.74592 8.58987L4.45477 8.80491L4.56399 9.14996C4.57817 9.19461 4.52725 9.23164 4.48911 9.20434L4.19467 8.99387L3.90024 9.20434C3.86209 9.23158 3.81129 9.19461 3.82535 9.14996L3.93457 8.80491L3.64342 8.58987C3.60574 8.56198 3.62514 8.50227 3.67201 8.50186L4.03395 8.49911L4.14844 8.15575C4.16321 8.11133 4.22608 8.11133 4.2409 8.15575Z" fill="#F5F5F5"/>
    <path d="M4.2409 9.95195L4.35539 10.2953L4.71733 10.2981C4.7642 10.2985 4.7836 10.3582 4.74592 10.3861L4.45477 10.6011L4.56399 10.9462C4.57817 10.9908 4.52725 11.0278 4.48911 11.0005L4.19467 10.7901L3.90024 11.0005C3.86209 11.0278 3.81129 10.9908 3.82535 10.9462L3.93457 10.6011L3.64342 10.3861C3.60574 10.3582 3.62514 10.2985 3.67201 10.2981L4.03395 10.2953L4.14844 9.95195C4.16321 9.90754 4.22608 9.90754 4.2409 9.95195Z" fill="#F5F5F5"/>
    <path d="M4.2409 11.7481L4.35539 12.0914L4.71733 12.0942C4.7642 12.0946 4.7836 12.1544 4.74592 12.1822L4.45477 12.3972L4.56399 12.7423C4.57817 12.7869 4.52725 12.824 4.48911 12.7967L4.19467 12.5862L3.90024 12.7967C3.86209 12.8239 3.81129 12.7869 3.82535 12.7423L3.93457 12.3972L3.64342 12.1822C3.60574 12.1543 3.62514 12.0946 3.67201 12.0942L4.03395 12.0914L4.14844 11.7481C4.16321 11.7036 4.22608 11.7036 4.2409 11.7481Z" fill="#F5F5F5"/>
    <path d="M4.2409 13.5443L4.35539 13.8876L4.71733 13.8904C4.7642 13.8908 4.7836 13.9506 4.74592 13.9784L4.45477 14.1934L4.56399 14.5385C4.57817 14.5831 4.52725 14.6202 4.48911 14.5929L4.19467 14.3824L3.90024 14.5929C3.86209 14.6201 3.81129 14.5831 3.82535 14.5385L3.93457 14.1934L3.64342 13.9784C3.60574 13.9505 3.62514 13.8908 3.67201 13.8904L4.03395 13.8876L4.14844 13.5443C4.16321 13.4997 4.22608 13.4997 4.2409 13.5443Z" fill="#F5F5F5"/>
    <path d="M5.63494 7.24022L5.74943 7.58358L6.11137 7.58633C6.15824 7.58674 6.17764 7.64651 6.13996 7.67434L5.84881 7.88938L5.95803 8.23444C5.97221 8.27908 5.92129 8.31612 5.88314 8.28881L5.58871 8.07834L5.29428 8.28881C5.25613 8.31606 5.20533 8.27908 5.2194 8.23444L5.32861 7.88938L5.03746 7.67434C4.99979 7.64645 5.01918 7.58674 5.06606 7.58633L5.42799 7.58358L5.54248 7.24022C5.55719 7.19581 5.62012 7.19581 5.63494 7.24022Z" fill="#F5F5F5"/>
    <path d="M5.63494 9.03647L5.74943 9.37983L6.11137 9.38258C6.15824 9.38299 6.17764 9.44275 6.13996 9.47059L5.84881 9.68563L5.95803 10.0307C5.97221 10.0753 5.92129 10.1124 5.88314 10.0851L5.58871 9.87459L5.29428 10.0851C5.25613 10.1123 5.20533 10.0754 5.2194 10.0307L5.32861 9.68563L5.03746 9.47059C4.99979 9.4427 5.01918 9.38299 5.06606 9.38258L5.42799 9.37983L5.54248 9.03647C5.55719 8.99199 5.62012 8.99199 5.63494 9.03647Z" fill="#F5F5F5"/>
    <path d="M5.63494 10.8325L5.74943 11.1759L6.11137 11.1787C6.15824 11.1791 6.17764 11.2388 6.13996 11.2667L5.84881 11.4817L5.95803 11.8268C5.97221 11.8714 5.92129 11.9084 5.88314 11.8811L5.58871 11.6707L5.29428 11.8811C5.25613 11.9084 5.20533 11.8714 5.2194 11.8268L5.32861 11.4817L5.03746 11.2667C4.99979 11.2388 5.01918 11.1791 5.06606 11.1787L5.42799 11.1759L5.54248 10.8325C5.55719 10.7881 5.62012 10.7881 5.63494 10.8325Z" fill="#F5F5F5"/>
    <path d="M5.63494 12.6286L5.74943 12.972L6.11137 12.9748C6.15824 12.9752 6.17764 13.0349 6.13996 13.0628L5.84881 13.2778L5.95803 13.6229C5.97221 13.6675 5.92129 13.7045 5.88314 13.6772L5.58871 13.4668L5.29428 13.6772C5.25613 13.7045 5.20533 13.6675 5.2194 13.6229L5.32861 13.2778L5.03746 13.0628C4.99979 13.0349 5.01918 12.9752 5.06606 12.9748L5.42799 12.972L5.54248 12.6286C5.55719 12.5842 5.62012 12.5842 5.63494 12.6286Z" fill="#F5F5F5"/>
    <path d="M7.02904 6.35965L7.14354 6.70301L7.50547 6.70576C7.55234 6.70617 7.57174 6.76594 7.53406 6.79377L7.24291 7.00881L7.35213 7.35386C7.36631 7.39851 7.31539 7.43554 7.27725 7.40824L6.98275 7.19777L6.68832 7.40824C6.65018 7.43549 6.59938 7.39851 6.61344 7.35386L6.72266 7.00881L6.43151 6.79377C6.39383 6.76588 6.41322 6.70617 6.4601 6.70576L6.82203 6.70301L6.93652 6.35965C6.95135 6.31518 7.01422 6.31518 7.02904 6.35965Z" fill="#F5F5F5"/>
    <path d="M7.02904 8.15575L7.14354 8.49911L7.50547 8.50186C7.55234 8.50227 7.57174 8.56204 7.53406 8.58987L7.24291 8.80491L7.35213 9.14996C7.36631 9.19461 7.31539 9.23164 7.27725 9.20434L6.98275 8.99387L6.68832 9.20434C6.65018 9.23158 6.59938 9.19461 6.61344 9.14996L6.72266 8.80491L6.43151 8.58987C6.39383 8.56198 6.41322 8.50227 6.4601 8.50186L6.82203 8.49911L6.93652 8.15575C6.95135 8.11133 7.01422 8.11133 7.02904 8.15575Z" fill="#F5F5F5"/>
    <path d="M7.02904 9.95195L7.14354 10.2953L7.50547 10.2981C7.55234 10.2985 7.57174 10.3582 7.53406 10.3861L7.24291 10.6011L7.35213 10.9462C7.36631 10.9908 7.31539 11.0278 7.27725 11.0005L6.98275 10.7901L6.68832 11.0005C6.65018 11.0278 6.59938 10.9908 6.61344 10.9462L6.72266 10.6011L6.43151 10.3861C6.39383 10.3582 6.41322 10.2985 6.4601 10.2981L6.82203 10.2953L6.93652 9.95195C6.95135 9.90754 7.01422 9.90754 7.02904 9.95195Z" fill="#F5F5F5"/>
    <path d="M7.02904 11.7481L7.14354 12.0914L7.50547 12.0942C7.55234 12.0946 7.57174 12.1544 7.53406 12.1822L7.24291 12.3972L7.35213 12.7423C7.36631 12.7869 7.31539 12.824 7.27725 12.7967L6.98275 12.5862L6.68832 12.7967C6.65018 12.8239 6.59938 12.7869 6.61344 12.7423L6.72266 12.3972L6.43151 12.1822C6.39383 12.1543 6.41322 12.0946 6.4601 12.0942L6.82203 12.0914L6.93652 11.7481C6.95135 11.7036 7.01422 11.7036 7.02904 11.7481Z" fill="#F5F5F5"/>
    <path d="M7.02904 13.5443L7.14354 13.8876L7.50547 13.8904C7.55234 13.8908 7.57174 13.9506 7.53406 13.9784L7.24291 14.1934L7.35213 14.5385C7.36631 14.5831 7.31539 14.6202 7.27725 14.5929L6.98275 14.3824L6.68832 14.5929C6.65018 14.6201 6.59938 14.5831 6.61344 14.5385L6.72266 14.1934L6.43151 13.9784C6.39383 13.9505 6.41322 13.8908 6.4601 13.8904L6.82203 13.8876L6.93652 13.5443C6.95135 13.4997 7.01422 13.4997 7.02904 13.5443Z" fill="#F5F5F5"/>
    <path d="M8.42328 7.24022L8.53777 7.58358L8.8997 7.58633C8.94658 7.58674 8.96597 7.64651 8.9283 7.67434L8.63714 7.88938L8.74636 8.23444C8.76054 8.27908 8.70962 8.31612 8.67148 8.28881L8.37705 8.07834L8.08261 8.28881C8.04447 8.31606 7.99366 8.27908 8.00773 8.23444L8.11695 7.88938L7.82579 7.67434C7.78812 7.64645 7.80751 7.58674 7.85439 7.58633L8.21632 7.58358L8.33081 7.24022C8.34564 7.19581 8.40845 7.19581 8.42328 7.24022Z" fill="#F5F5F5"/>
    <path d="M8.42328 9.03647L8.53777 9.37983L8.8997 9.38258C8.94658 9.38299 8.96597 9.44275 8.9283 9.47059L8.63714 9.68563L8.74636 10.0307C8.76054 10.0753 8.70962 10.1124 8.67148 10.0851L8.37705 9.87459L8.08261 10.0851C8.04447 10.1123 7.99366 10.0754 8.00773 10.0307L8.11695 9.68563L7.82579 9.47059C7.78812 9.4427 7.80751 9.38299 7.85439 9.38258L8.21632 9.37983L8.33081 9.03647C8.34564 8.99199 8.40845 8.99199 8.42328 9.03647Z" fill="#F5F5F5"/>
    <path d="M8.42328 10.8325L8.53777 11.1759L8.8997 11.1787C8.94658 11.1791 8.96597 11.2388 8.9283 11.2667L8.63714 11.4817L8.74636 11.8268C8.76054 11.8714 8.70962 11.9084 8.67148 11.8811L8.37705 11.6707L8.08261 11.8811C8.04447 11.9084 7.99366 11.8714 8.00773 11.8268L8.11695 11.4817L7.82579 11.2667C7.78812 11.2388 7.80751 11.1791 7.85439 11.1787L8.21632 11.1759L8.33081 10.8325C8.34564 10.7881 8.40845 10.7881 8.42328 10.8325Z" fill="#F5F5F5"/>
    <path d="M8.42328 12.6286L8.53777 12.972L8.8997 12.9748C8.94658 12.9752 8.96597 13.0349 8.9283 13.0628L8.63714 13.2778L8.74636 13.6229C8.76054 13.6675 8.70962 13.7045 8.67148 13.6772L8.37705 13.4668L8.08261 13.6772C8.04447 13.7045 7.99366 13.6675 8.00773 13.6229L8.11695 13.2778L7.82579 13.0628C7.78812 13.0349 7.80751 12.9752 7.85439 12.9748L8.21632 12.972L8.33081 12.6286C8.34564 12.5842 8.40845 12.5842 8.42328 12.6286Z" fill="#F5F5F5"/>
    <path d="M9.81732 6.35965L9.93181 6.70301L10.2937 6.70576C10.3406 6.70617 10.36 6.76594 10.3223 6.79377L10.0312 7.00881L10.1404 7.35386C10.1546 7.39851 10.1037 7.43554 10.0655 7.40824L9.77109 7.19777L9.47665 7.40824C9.43851 7.43549 9.38771 7.39851 9.40177 7.35386L9.51099 7.00881L9.21984 6.79377C9.18216 6.76588 9.20155 6.70617 9.24843 6.70576L9.61036 6.70301L9.72486 6.35965C9.73956 6.31518 9.80249 6.31518 9.81732 6.35965Z" fill="#F5F5F5"/>
    <path d="M9.81732 8.15575L9.93181 8.49911L10.2937 8.50186C10.3406 8.50227 10.36 8.56204 10.3223 8.58987L10.0312 8.80491L10.1404 9.14996C10.1546 9.19461 10.1037 9.23164 10.0655 9.20434L9.77109 8.99387L9.47665 9.20434C9.43851 9.23158 9.38771 9.19461 9.40177 9.14996L9.51099 8.80491L9.21984 8.58987C9.18216 8.56198 9.20155 8.50227 9.24843 8.50186L9.61036 8.49911L9.72486 8.15575C9.73956 8.11133 9.80249 8.11133 9.81732 8.15575Z" fill="#F5F5F5"/>
    <path d="M9.81732 9.95195L9.93181 10.2953L10.2937 10.2981C10.3406 10.2985 10.36 10.3582 10.3223 10.3861L10.0312 10.6011L10.1404 10.9462C10.1546 10.9908 10.1037 11.0278 10.0655 11.0005L9.77109 10.7901L9.47665 11.0005C9.43851 11.0278 9.38771 10.9908 9.40177 10.9462L9.51099 10.6011L9.21984 10.3861C9.18216 10.3582 9.20155 10.2985 9.24843 10.2981L9.61036 10.2953L9.72486 9.95195C9.73956 9.90754 9.80249 9.90754 9.81732 9.95195Z" fill="#F5F5F5"/>
    <path d="M9.81732 11.7481L9.93181 12.0914L10.2937 12.0942C10.3406 12.0946 10.36 12.1544 10.3223 12.1822L10.0312 12.3972L10.1404 12.7423C10.1546 12.7869 10.1037 12.824 10.0655 12.7967L9.77109 12.5862L9.47665 12.7967C9.43851 12.8239 9.38771 12.7869 9.40177 12.7423L9.51099 12.3972L9.21984 12.1822C9.18216 12.1543 9.20155 12.0946 9.24843 12.0942L9.61036 12.0914L9.72486 11.7481C9.73956 11.7036 9.80249 11.7036 9.81732 11.7481Z" fill="#F5F5F5"/>
    <path d="M9.81732 13.5443L9.93181 13.8876L10.2937 13.8904C10.3406 13.8908 10.36 13.9506 10.3223 13.9784L10.0312 14.1934L10.1404 14.5385C10.1546 14.5831 10.1037 14.6202 10.0655 14.5929L9.77109 14.3824L9.47665 14.5929C9.43851 14.6201 9.38771 14.5831 9.40177 14.5385L9.51099 14.1934L9.21984 13.9784C9.18216 13.9505 9.20155 13.8908 9.24843 13.8904L9.61036 13.8876L9.72486 13.5443C9.73956 13.4997 9.80249 13.4997 9.81732 13.5443Z" fill="#F5F5F5"/>
    <path d="M11.2116 7.24022L11.3261 7.58358L11.688 7.58633C11.7349 7.58674 11.7543 7.64651 11.7166 7.67434L11.4255 7.88938L11.5347 8.23444C11.5489 8.27908 11.4979 8.31612 11.4598 8.28881L11.1654 8.07834L10.8709 8.28881C10.8328 8.31606 10.782 8.27908 10.7961 8.23444L10.9053 7.88938L10.6141 7.67434C10.5764 7.64645 10.5958 7.58674 10.6427 7.58633L11.0046 7.58358L11.1191 7.24022C11.1339 7.19581 11.1968 7.19581 11.2116 7.24022Z" fill="#F5F5F5"/>
    <path d="M11.2116 9.03647L11.3261 9.37983L11.688 9.38258C11.7349 9.38299 11.7543 9.44275 11.7166 9.47059L11.4255 9.68563L11.5347 10.0307C11.5489 10.0753 11.4979 10.1124 11.4598 10.0851L11.1654 9.87459L10.8709 10.0851C10.8328 10.1123 10.782 10.0754 10.7961 10.0307L10.9053 9.68563L10.6141 9.47059C10.5764 9.4427 10.5958 9.38299 10.6427 9.38258L11.0046 9.37983L11.1191 9.03647C11.1339 8.99199 11.1968 8.99199 11.2116 9.03647Z" fill="#F5F5F5"/>
    <path d="M11.2116 10.8325L11.3261 11.1759L11.688 11.1787C11.7349 11.1791 11.7543 11.2388 11.7166 11.2667L11.4255 11.4817L11.5347 11.8268C11.5489 11.8714 11.4979 11.9084 11.4598 11.8811L11.1654 11.6707L10.8709 11.8811C10.8328 11.9084 10.782 11.8714 10.7961 11.8268L10.9053 11.4817L10.6141 11.2667C10.5764 11.2388 10.5958 11.1791 10.6427 11.1787L11.0046 11.1759L11.1191 10.8325C11.1339 10.7881 11.1968 10.7881 11.2116 10.8325Z" fill="#F5F5F5"/>
    <path d="M11.2116 12.6286L11.3261 12.972L11.688 12.9748C11.7349 12.9752 11.7543 13.0349 11.7166 13.0628L11.4255 13.2778L11.5347 13.6229C11.5489 13.6675 11.4979 13.7045 11.4598 13.6772L11.1654 13.4668L10.8709 13.6772C10.8328 13.7045 10.782 13.6675 10.7961 13.6229L10.9053 13.2778L10.6141 13.0628C10.5764 13.0349 10.5958 12.9752 10.6427 12.9748L11.0046 12.972L11.1191 12.6286C11.1339 12.5842 11.1968 12.5842 11.2116 12.6286Z" fill="#F5F5F5"/>
    <path d="M12.6056 6.35965L12.7201 6.70301L13.0821 6.70576C13.1289 6.70617 13.1483 6.76594 13.1107 6.79377L12.8195 7.00881L12.9287 7.35386C12.9429 7.39851 12.892 7.43554 12.8538 7.40824L12.5594 7.19777L12.265 7.40824C12.2268 7.43549 12.176 7.39851 12.1901 7.35386L12.2993 7.00881L12.0082 6.79377C11.9705 6.76588 11.9899 6.70617 12.0368 6.70576L12.3987 6.70301L12.5132 6.35965C12.528 6.31518 12.5908 6.31518 12.6056 6.35965Z" fill="#F5F5F5"/>
    <path d="M12.6056 8.15575L12.7201 8.49911L13.0821 8.50186C13.1289 8.50227 13.1483 8.56204 13.1107 8.58987L12.8195 8.80491L12.9287 9.14996C12.9429 9.19461 12.892 9.23164 12.8538 9.20434L12.5594 8.99387L12.265 9.20434C12.2268 9.23158 12.176 9.19461 12.1901 9.14996L12.2993 8.80491L12.0082 8.58987C11.9705 8.56198 11.9899 8.50227 12.0368 8.50186L12.3987 8.49911L12.5132 8.15575C12.528 8.11133 12.5908 8.11133 12.6056 8.15575Z" fill="#F5F5F5"/>
    <path d="M12.6056 9.95195L12.7201 10.2953L13.0821 10.2981C13.1289 10.2985 13.1483 10.3582 13.1107 10.3861L12.8195 10.6011L12.9287 10.9462C12.9429 10.9908 12.892 11.0278 12.8538 11.0005L12.5594 10.7901L12.265 11.0005C12.2268 11.0278 12.176 10.9908 12.1901 10.9462L12.2993 10.6011L12.0082 10.3861C11.9705 10.3582 11.9899 10.2985 12.0368 10.2981L12.3987 10.2953L12.5132 9.95195C12.528 9.90754 12.5908 9.90754 12.6056 9.95195Z" fill="#F5F5F5"/>
    <path d="M12.6056 11.7481L12.7201 12.0914L13.0821 12.0942C13.1289 12.0946 13.1483 12.1544 13.1107 12.1822L12.8195 12.3972L12.9287 12.7423C12.9429 12.7869 12.892 12.824 12.8538 12.7967L12.5594 12.5862L12.265 12.7967C12.2268 12.8239 12.176 12.7869 12.1901 12.7423L12.2993 12.3972L12.0082 12.1822C11.9705 12.1543 11.9899 12.0946 12.0368 12.0942L12.3987 12.0914L12.5132 11.7481C12.528 11.7036 12.5908 11.7036 12.6056 11.7481Z" fill="#F5F5F5"/>
    <path d="M12.6056 13.5443L12.7201 13.8876L13.0821 13.8904C13.1289 13.8908 13.1483 13.9506 13.1107 13.9784L12.8195 14.1934L12.9287 14.5385C12.9429 14.5831 12.892 14.6202 12.8538 14.5929L12.5594 14.3824L12.265 14.5929C12.2268 14.6201 12.176 14.5831 12.1901 14.5385L12.2993 14.1934L12.0082 13.9784C11.9705 13.9505 11.9899 13.8908 12.0368 13.8904L12.3987 13.8876L12.5132 13.5443C12.528 13.4997 12.5908 13.4997 12.6056 13.5443Z" fill="#F5F5F5"/>
</svg>
